<svg
  version="1.1"
  id="Layer_1"
  xmlns="http://www.w3.org/2000/svg"
  xmlns:xlink="http://www.w3.org/1999/xlink"
  viewBox="0 0 64 64"
  xml:space="preserve"
  width="200px"
  height="200px"
>
  <g id="body">
    <path
      fill="#D9E3E8"
      d="M32,2c7.732,0,14,6.268,14,14s-6.268,14-14,14s-14-6.268-14-14S24.268,2,32,2 M32,0
    C23.163,0,16,7.163,16,16s7.163,16,16,16s16-7.163,16-16S40.837,0,32,0L32,0z"
    />
    <path
      fill="#BEC9D1"
      d="M46,30H18c-2.209,0-4,1.791-4,4v20c0,2.209,1.791,4,4,4h28c2.209,0,4-1.791,4-4V34
    C50,31.791,48.209,30,46,30z"
    />
  </g>
  <g id="keyboard">
    <rect x="12" y="48" fill="#E1E8EE" width="40" height="6" />
    <rect x="14" y="49" fill="#BCC5CB" width="36" height="2" />
  </g>
  <g id="hands">
    <path
      fill="#F4CCB0"
      d="M14,36h4v6h-4V36z M46,36h4v6h-4V36z"
    />
  </g>
  <g id="arms">
    <path
      fill="#D9E3E8"
      d="M14,36c0,3.314,2.686,6,6,6s6-2.686,6-6s-2.686-6-6-6S14,32.686,14,36z M46,36c0,3.314-2.686,6-6,6
    s-6-2.686-6-6s2.686-6,6-6S46,32.686,46,36z"
    />
  </g>
  <g id="face">
    <circle fill="#F4CCB0" cx="32" cy="16" r="12" />
    <circle fill="#454B54" cx="27" cy="14" r="2" />
    <circle fill="#454B54" cx="37" cy="14" r="2" />
    <path
      fill="#454B54"
      d="M32,22c-2.209,0-4,1.791-4,4h8C36,23.791,34.209,22,32,22z"
    />
  </g>
</svg>